<svg width="72" height="72" viewBox="0 0 72 72" fill="none" xmlns="http://www.w3.org/2000/svg">
<path d="M12.7519 3.62665e-05H59.2518C62.6337 0.0104533 72.0019 0 72.0019 0C72.0019 0 72.0007 9.61561 72.0019 13.0817V58.9183C72.006 62.3815 72.0019 72 72.0019 72C72.0019 72 62.6537 71.9896 59.2718 72H12.7519C9.36997 71.9896 0.00187587 72 0.00187587 72C0.00187587 72 0.00301725 62.3844 0.00185679 58.9183V13.0817C-0.00231354 9.61849 0.00184404 3.62665e-05 0.00184404 3.62665e-05C0.00184404 3.62665e-05 9.36303 0.00505922 12.7519 3.62665e-05Z" fill="#00005B" style="fill:#00005B;fill:color(display-p3 0.0000 0.0000 0.3569);fill-opacity:1;"/>
<path fill-rule="evenodd" clip-rule="evenodd" d="M18.762 43.0001H29.922L32.382 50.2001C32.4431 50.4103 32.6439 50.5483 32.862 50.5301H39.182C39.482 50.5301 39.572 50.3801 39.482 50.0501L28.482 19.3001C28.452 19.1501 28.302 19.0601 28.092 19.0601H20.322C20.168 19.0903 20.0634 19.2342 20.082 19.3901C20.0821 20.0442 20.0219 20.697 19.902 21.3401L19.902 21.3401L19.902 21.3402C19.782 21.7001 19.692 21.9701 19.602 22.2701L9.94205 49.9601C9.85205 50.3201 9.94205 50.5001 10.272 50.5001H15.912C16.1814 50.5261 16.4271 50.345 16.482 50.0801L18.762 43.0001ZM28.122 37.0001H20.502C20.8293 36.1949 21.0966 35.287 21.3769 34.3351C21.5247 33.8328 21.6762 33.3182 21.842 32.8001C22.1392 31.8715 22.4249 30.9428 22.7061 30.0285L22.7062 30.0283C22.8792 29.4657 23.0506 28.9085 23.222 28.3601C23.6256 27.0892 23.9594 25.7973 24.222 24.4901H24.282C24.492 25.2101 24.702 25.9601 24.942 26.8301C25.182 27.7001 25.452 28.5701 25.752 29.5001L25.7521 29.5003L25.7523 29.5008C26.0522 30.4305 26.3521 31.3603 26.622 32.2601C26.892 33.1601 27.162 34.0601 27.432 34.8401C27.702 35.6201 27.942 36.3701 28.122 37.0001ZM57.222 40.2401H47.712C47.8227 41.1874 48.1402 42.0989 48.642 42.9101C49.1699 43.7207 49.9345 44.3492 50.832 44.7101C52.0449 45.2278 53.3535 45.4834 54.672 45.4601C55.7196 45.4403 56.7635 45.3299 57.792 45.1301C58.7069 45.0101 59.6036 44.7784 60.462 44.4401C60.612 44.3201 60.702 44.3801 60.702 44.6801V49.2701C60.6918 49.3915 60.6718 49.5119 60.642 49.6301C60.5879 49.7143 60.5163 49.7859 60.432 49.8401C59.4715 50.2587 58.4644 50.5608 57.432 50.7401C56.0287 51.0099 54.6008 51.1306 53.172 51.1001C51.2 51.1534 49.2384 50.7958 47.412 50.0501C45.9441 49.4129 44.6485 48.4361 43.632 47.2001C42.6838 46.0432 41.9797 44.7064 41.562 43.2701C40.6809 40.2774 40.7227 37.0886 41.682 34.1201C42.1599 32.6147 42.9239 31.2158 43.932 30.0001C44.9237 28.8007 46.1617 27.8287 47.562 27.1501C49.1376 26.4682 50.8467 26.1503 52.562 26.2201C54.1619 26.1811 55.7503 26.4988 57.212 27.1501C58.4411 27.6828 59.5222 28.5065 60.362 29.5501C61.1658 30.5832 61.7788 31.7515 62.172 33.0001C62.5503 34.1832 62.7426 35.4179 62.742 36.6601C62.7544 37.3007 62.7344 37.9415 62.682 38.5801C62.6497 38.8871 62.6261 39.1534 62.6065 39.3745C62.5897 39.5639 62.5759 39.7201 62.562 39.8401C62.5336 40.0539 62.3574 40.2176 62.142 40.2301C61.8078 40.2282 61.4737 40.2483 61.142 40.2901C60.5648 40.3599 59.9834 40.39 59.402 40.3801C59.0676 40.3801 58.7262 40.3519 58.3743 40.3228L58.3742 40.3228C58 40.2919 57.614 40.2601 57.212 40.2601L57.222 40.2401ZM55.712 35.8601H47.712C47.7843 35.1189 47.991 34.3971 48.322 33.7301C49.0868 32.2456 50.655 31.3517 52.322 31.4501C54.0891 31.4073 55.6746 32.5294 56.222 34.2101C56.3417 34.5679 56.4024 34.9428 56.402 35.3201V35.6201C56.1967 35.7584 55.9589 35.8412 55.712 35.8601Z" fill="#9999FF" style="fill:#9999FF;fill:color(display-p3 0.6000 0.6000 1.0000);fill-opacity:1;"/>
</svg>
