<svg width="39" height="39" viewBox="0 0 39 39" fill="none" xmlns="http://www.w3.org/2000/svg">
<path d="M16.9083 7.84009C17.2413 6.49117 19.1589 6.49117 19.4919 7.84009V7.84009C20.9134 13.598 25.4092 18.0936 31.1671 19.515V19.515C32.516 19.848 32.516 21.7657 31.1671 22.0987V22.0987C25.4092 23.5201 20.9134 28.0157 19.4919 33.7736V33.7736C19.1589 35.1225 17.2413 35.1225 16.9083 33.7736V33.7736C15.4868 28.0157 10.991 23.5201 5.23314 22.0987V22.0987C3.88419 21.7657 3.88419 19.848 5.23314 19.515V19.515C10.991 18.0936 15.4868 13.598 16.9083 7.84009V7.84009Z" fill="url(#paint0_linear_1642_2779)"/>
<path d="M31.1124 2.11798C31.2472 1.57199 32.0233 1.57199 32.1581 2.11798V2.11798C32.7335 4.44855 34.5532 6.26822 36.8838 6.84354V6.84354C37.4298 6.97832 37.4298 7.75453 36.8838 7.88932V7.88932C34.5532 8.46464 32.7335 10.2843 32.1581 12.6149V12.6149C32.0233 13.1609 31.2472 13.1609 31.1124 12.6149V12.6149C30.537 10.2843 28.7173 8.46464 26.3867 7.88932V7.88932C25.8407 7.75453 25.8407 6.97832 26.3867 6.84354V6.84354C28.7173 6.26822 30.537 4.44855 31.1124 2.11798V2.11798Z" fill="url(#paint1_linear_1642_2779)"/>
<defs>
<linearGradient id="paint0_linear_1642_2779" x1="18.2001" y1="2.60742" x2="18.2001" y2="39.0062" gradientUnits="userSpaceOnUse">
<stop stop-color="#B38FFF"/>
<stop offset="1" stop-color="#6780FE"/>
</linearGradient>
<linearGradient id="paint1_linear_1642_2779" x1="31.6353" y1="0" x2="31.6353" y2="14.7329" gradientUnits="userSpaceOnUse">
<stop stop-color="#B38FFF"/>
<stop offset="1" stop-color="#6780FE"/>
</linearGradient>
</defs>
</svg>
