<svg width="20" height="20" viewBox="0 0 20 20" fill="none" xmlns="http://www.w3.org/2000/svg">
<path d="M17.024 16.4644C8.76867 20.3932 3.64533 17.1061 0.365728 15.1095C0.162787 14.9837 -0.182141 15.139 0.117131 15.4827C1.20973 16.8075 4.79042 20.0007 9.46425 20.0007C14.1413 20.0007 16.9237 17.4487 17.2718 17.0035C17.6175 16.5621 17.3733 16.3186 17.0239 16.4644H17.024ZM19.3424 15.184C19.1208 14.8953 17.9944 14.8415 17.2856 14.9286C16.5756 15.0131 15.51 15.447 15.6027 15.7075C15.6502 15.8051 15.7473 15.7614 16.235 15.7175C16.724 15.6687 18.094 15.4958 18.3794 15.869C18.6662 16.2447 17.9425 18.0347 17.8103 18.3234C17.6826 18.6121 17.8591 18.6865 18.099 18.4943C18.3356 18.3021 18.7639 17.8043 19.0513 17.1C19.3368 16.3918 19.511 15.4038 19.3424 15.184Z" fill="#FF9900"/>
<path fill-rule="evenodd" clip-rule="evenodd" d="M11.4732 8.44804C11.4732 9.47891 11.4992 10.3386 10.9782 11.2541C10.5576 11.9984 9.89146 12.4562 9.14716 12.4562C8.13112 12.4562 7.5394 11.6821 7.5394 10.5396C7.5394 8.28425 9.56018 7.87491 11.4732 7.87491V8.44804ZM14.1415 14.8976C13.9666 15.0539 13.7135 15.0651 13.5163 14.9608C12.638 14.2314 12.4817 13.8928 11.9979 13.1968C10.5465 14.678 9.51931 15.1208 7.63621 15.1208C5.41068 15.1208 3.67639 13.7476 3.67639 10.9973C3.67639 8.85 4.84132 7.38737 6.49732 6.67288C7.93391 6.04013 9.93986 5.9285 11.4732 5.75365V5.41123C11.4732 4.78225 11.5215 4.03795 11.1531 3.49463C10.8293 3.00708 10.2115 2.8061 9.66812 2.8061C8.65962 2.8061 7.75898 3.32338 7.5394 4.39519C7.49469 4.63343 7.31983 4.86791 7.08167 4.87905L4.51373 4.6037C4.29792 4.55522 4.05976 4.38037 4.1193 4.04909C4.71102 0.937905 7.52073 0 10.0365 0C11.3242 0 13.0063 0.342418 14.0224 1.31751C15.3101 2.51954 15.1872 4.12353 15.1872 5.86896V9.9925C15.1872 11.2318 15.7008 11.7751 16.1846 12.445C16.3558 12.6832 16.393 12.9698 16.1771 13.1484C15.6375 13.5987 14.6773 14.4361 14.1489 14.905L14.1414 14.8976" fill="black"/>
<path d="M17.024 16.4644C8.76867 20.3932 3.64533 17.1061 0.365728 15.1095C0.162787 14.9837 -0.182141 15.139 0.117131 15.4827C1.20973 16.8075 4.79042 20.0007 9.46425 20.0007C14.1413 20.0007 16.9237 17.4487 17.2718 17.0035C17.6175 16.5621 17.3733 16.3186 17.0239 16.4644H17.024ZM19.3424 15.184C19.1208 14.8953 17.9944 14.8415 17.2856 14.9286C16.5756 15.0131 15.51 15.447 15.6027 15.7075C15.6502 15.8051 15.7473 15.7614 16.235 15.7175C16.724 15.6687 18.094 15.4958 18.3794 15.869C18.6662 16.2447 17.9425 18.0347 17.8103 18.3234C17.6826 18.6121 17.8591 18.6865 18.099 18.4943C18.3356 18.3021 18.7639 17.8043 19.0513 17.1C19.3368 16.3918 19.511 15.4038 19.3424 15.184Z" fill="#FF9900"/>
<path fill-rule="evenodd" clip-rule="evenodd" d="M11.4732 8.44804C11.4732 9.47891 11.4992 10.3386 10.9782 11.2541C10.5576 11.9984 9.89146 12.4562 9.14716 12.4562C8.13112 12.4562 7.5394 11.6821 7.5394 10.5396C7.5394 8.28425 9.56018 7.87491 11.4732 7.87491V8.44804ZM14.1415 14.8976C13.9666 15.0539 13.7135 15.0651 13.5163 14.9608C12.638 14.2314 12.4817 13.8928 11.9979 13.1968C10.5465 14.678 9.51931 15.1208 7.63621 15.1208C5.41068 15.1208 3.67639 13.7476 3.67639 10.9973C3.67639 8.85 4.84132 7.38737 6.49732 6.67288C7.93391 6.04013 9.93986 5.9285 11.4732 5.75365V5.41123C11.4732 4.78225 11.5215 4.03795 11.1531 3.49463C10.8293 3.00708 10.2115 2.8061 9.66812 2.8061C8.65962 2.8061 7.75898 3.32338 7.5394 4.39519C7.49469 4.63343 7.31983 4.86791 7.08167 4.87905L4.51373 4.6037C4.29792 4.55522 4.05976 4.38037 4.1193 4.04909C4.71102 0.937905 7.52073 0 10.0365 0C11.3242 0 13.0063 0.342418 14.0224 1.31751C15.3101 2.51954 15.1872 4.12353 15.1872 5.86896V9.9925C15.1872 11.2318 15.7008 11.7751 16.1846 12.445C16.3558 12.6832 16.393 12.9698 16.1771 13.1484C15.6375 13.5987 14.6773 14.4361 14.1489 14.905L14.1414 14.8976" fill="black"/>
</svg>
