<svg width="72" height="72" viewBox="0 0 72 72" fill="none" xmlns="http://www.w3.org/2000/svg">
<rect width="72" height="72" fill="white" style="fill:white;fill-opacity:1;"/>
<path fill-rule="evenodd" clip-rule="evenodd" d="M42 23.1901H19.27C15.19 23.5101 15.84 28.9501 18.85 28.9101H29.65C24.87 33.4201 14.21 40.2501 9.54 44.6901C7.74 46.4001 7.84 51.4001 13.09 50.2501C15.09 49.1501 24.09 41.8301 25.28 40.5601C25.9 56.1201 43.4 63.4201 56.54 54.2901C63.54 49.4401 65.93 37.1001 60.47 31.0301C56.16 26.1901 48.31 21.3901 38.91 13.5901C37.42 12.3601 32.91 12.9901 34.44 16.6401C36.817 18.9864 39.3422 21.1776 42 23.2001V23.1901ZM44.31 28.6701C50.78 28.6701 56.09 33.4401 56.09 39.2401C56.09 45.0401 50.74 49.8201 44.27 49.8201C37.8 49.8201 32.49 45.0901 32.49 39.2401C32.49 33.3901 37.75 28.6701 44.27 28.6701H44.31Z" fill="#F29433" style="fill:#F29433;fill:color(display-p3 0.9490 0.5804 0.2000);fill-opacity:1;"/>
<path fill-rule="evenodd" clip-rule="evenodd" d="M44.6801 32.0801C48.4268 32.3031 51.308 35.48 51.165 39.2306C51.0221 42.9812 47.9075 45.9296 44.1547 45.8669C40.402 45.8042 37.3876 42.7533 37.3701 39.0001C37.4791 35.0711 40.7511 31.9737 44.6801 32.0801Z" fill="#0069A2" style="fill:#0069A2;fill:color(display-p3 0.0000 0.4118 0.6353);fill-opacity:1;"/>
</svg>
