<svg width="24" height="24" viewBox="0 0 24 24" fill="none" xmlns="http://www.w3.org/2000/svg">
<mask id="path-1-inside-1_1813_5741" fill="white">
<path fill-rule="evenodd" clip-rule="evenodd" d="M20.6668 7.60079C20.8811 7.11061 21 6.56919 21 6C21 3.79086 19.2091 2 17 2C14.7909 2 13 3.79086 13 6C13 6.56919 13.1189 7.11061 13.3332 7.60079C12.5058 8.49286 12 9.68736 12 11C12 13.7614 14.2386 16 17 16C19.7614 16 22 13.7614 22 11C22 9.68736 21.4942 8.49287 20.6668 7.60079Z"/>
</mask>
<path d="M20.6668 7.60079L19.2924 6.99994C19.0534 7.54675 19.1612 8.18325 19.567 8.62081L20.6668 7.60079ZM13.3332 7.60079L14.433 8.6208C14.8388 8.18324 14.9466 7.54674 14.7076 6.99993L13.3332 7.60079ZM19.5 6C19.5 6.35851 19.4254 6.69566 19.2924 6.99994L22.0412 8.20165C22.3368 7.52557 22.5 6.77987 22.5 6H19.5ZM17 3.5C18.3807 3.5 19.5 4.61929 19.5 6H22.5C22.5 2.96243 20.0376 0.5 17 0.5V3.5ZM14.5 6C14.5 4.61929 15.6193 3.5 17 3.5V0.5C13.9624 0.5 11.5 2.96243 11.5 6H14.5ZM14.7076 6.99993C14.5746 6.69565 14.5 6.35851 14.5 6H11.5C11.5 6.77987 11.6632 7.52556 11.9588 8.20164L14.7076 6.99993ZM13.5 11C13.5 10.0804 13.8527 9.24647 14.433 8.6208L12.2334 6.58077C11.1589 7.73925 10.5 9.29436 10.5 11H13.5ZM17 14.5C15.067 14.5 13.5 12.933 13.5 11H10.5C10.5 14.5899 13.4101 17.5 17 17.5V14.5ZM20.5 11C20.5 12.933 18.933 14.5 17 14.5V17.5C20.5899 17.5 23.5 14.5899 23.5 11H20.5ZM19.567 8.62081C20.1473 9.24648 20.5 10.0804 20.5 11H23.5C23.5 9.29435 22.8411 7.73926 21.7666 6.58078L19.567 8.62081Z" fill="black" mask="url(#path-1-inside-1_1813_5741)"/>
<path d="M17 11V21.0005" stroke="black" stroke-width="1.5" stroke-linecap="round" stroke-linejoin="round"/>
<path d="M8.25 6C8.25 7.24264 7.24264 8.25 6 8.25C4.75736 8.25 3.75 7.24264 3.75 6C3.75 4.75736 4.75736 3.75 6 3.75C7.24264 3.75 8.25 4.75736 8.25 6Z" fill="white" stroke="black" stroke-width="1.5" stroke-linecap="round" stroke-linejoin="round"/>
<path d="M3 21L8 12H14L19 21H13H8H3Z" fill="white"/>
<path d="M8 12L3 21H8M8 12L13 21M8 12H14L19 21M8 12V21M13 21H19M13 21H8M19 21H21" stroke="black" stroke-width="1.5" stroke-linecap="round" stroke-linejoin="round"/>
</svg>
