<svg width="144" height="148" viewBox="0 0 144 148" fill="none" xmlns="http://www.w3.org/2000/svg">
<path d="M72.0502 9.76371C81.6951 10.6839 88.8203 14.4515 90.0547 15.1497C91.8786 16.1842 114.049 26.9246 117.391 27.9722C120.737 29.0201 125.241 29.7133 125.241 29.7133C125.241 29.7133 123.912 34.6216 117.683 36.7404C117.683 36.7404 123.41 44.9362 123.91 52.1147C124.484 60.2964 123.401 67.3361 118.569 74.5286C118.334 74.8767 118.007 75.3272 117.639 75.8191C117.712 75.8261 117.782 75.8245 117.856 75.8315C126.485 76.6548 132.855 84.1463 132.056 92.5263C131.325 100.184 124.861 105.978 117.168 106.298C114.077 115.266 108.28 123.169 100.599 128.805C91.6345 135.381 80.5787 138.419 69.4733 137.359C62.5253 136.696 56.2246 134.815 50.763 131.82C48.2374 133.868 45.1124 135.035 41.1386 134.656C40.6286 134.607 40.1046 134.533 39.5667 134.432C39.223 134.366 39.1865 133.885 39.5147 133.768C43.5356 132.316 43.3408 129.74 43.3408 129.74C43.3408 129.74 40.6339 131.833 37.1001 131.891C36.4158 131.9 35.7636 131.875 35.1476 131.816C32.6384 131.577 30.6792 130.838 29.4182 130.203C28.9588 129.97 29.1025 129.284 29.6162 129.25C30.5653 129.184 31.3791 128.982 32.0821 128.691C31.4227 128.698 30.7623 128.672 30.0973 128.609C19.5386 127.601 11.7776 118.112 12.794 107.46C13.1505 103.722 14.5449 100.241 16.7971 97.3472C16.2675 94.2254 15.6222 90.9773 15.0908 90.0744C15.0908 90.0744 8.72774 82.633 9.97927 73.6579C11.2308 64.6829 15.0105 61.3999 15.0105 61.3999C15.0105 61.3999 11.3876 52.9849 17.9904 44.364C24.5932 35.743 34.0519 33.5659 34.0519 33.5659C34.0519 33.5659 40.0677 15.778 56.7833 11.0696C62.2071 9.54096 67.4233 9.32638 72.058 9.76857M72.4395 5.68384C66.6501 5.13148 61.005 5.61391 55.6658 7.11773C40.4312 11.4075 33.2169 25.0134 30.9622 30.2204C27.4101 31.4624 20.2168 34.7079 14.7292 41.8667C9.02965 49.3058 9.60115 56.6927 10.4559 60.4631C8.89431 62.6773 6.80256 66.6935 5.91244 73.0888C4.61345 82.3887 9.93628 90.1178 11.537 92.1973C11.6768 92.6305 11.9817 93.7506 12.4572 96.3609C10.3617 99.5534 9.07339 103.218 8.70633 107.065C7.61174 118.538 14.9358 128.895 25.5746 131.911C26.0111 132.731 26.6944 133.422 27.5626 133.859C29.0631 134.615 31.5315 135.584 34.7465 135.891C35.028 135.917 35.3099 135.94 35.5925 135.955C36.1828 137.234 37.3677 138.191 38.8036 138.46C39.4546 138.584 40.1047 138.674 40.7412 138.735C44.5232 139.096 47.9847 138.372 51.0579 136.582C56.4871 139.183 62.5318 140.814 69.0759 141.438C81.185 142.594 93.2386 139.281 103.017 132.112C110.587 126.56 116.588 118.807 120.121 110.083C128.632 108.519 135.307 101.556 136.131 92.9193C136.955 84.2822 131.856 76.4591 124.116 73.2216C127.378 66.9869 128.584 60.2223 127.997 51.8294C127.654 46.9262 125.332 41.7931 123.463 38.3747C124.866 37.3969 126.086 36.2206 127.082 34.8788C128.584 32.8647 129.105 31.1153 129.194 30.7821L130.394 26.3597L125.866 25.6601C125.825 25.6562 121.619 24.9955 118.617 24.0586C115.718 23.1521 93.8598 12.5938 92.0788 11.584C90.653 10.7769 83.0145 6.69278 72.4395 5.68384Z" fill="white"/>
<path d="M69.4619 137.367C58.5578 136.329 49.2403 132.299 42.2686 125.648C38.6839 127.966 34.4164 129.03 30.0922 128.618C19.5349 127.612 11.7764 118.123 12.7944 107.468C13.2799 102.388 15.6757 97.7774 19.5391 94.4807C22.2638 92.1584 25.5059 90.6678 28.9418 90.1221C28.979 88.7421 29.0663 87.3545 29.1989 85.9671C31.6826 59.9733 53.7857 40.7407 78.4699 43.0923C87.6198 43.964 96.3217 48.1901 103.627 55.3181C109.384 60.9315 113.961 68.0959 116.732 75.7596C117.105 75.7705 117.477 75.7936 117.853 75.8293C126.481 76.6513 132.849 84.143 132.048 92.5246C131.317 100.184 124.852 105.979 117.16 106.301C114.068 115.271 108.27 123.177 100.589 128.815C91.6243 135.394 80.5692 138.434 69.4652 137.376L69.4619 137.367Z" fill="#111527"/>
<path d="M117.463 79.9059C116.219 79.7873 115.001 79.8649 113.842 80.1086C109.187 64.0751 95.5476 48.8369 78.0798 47.1728C55.6066 45.0318 35.5503 62.5736 33.278 86.3557C33.0296 88.9551 32.9572 91.5218 33.0595 94.027C24.8755 93.4285 17.6628 99.5522 16.869 107.86C16.0751 116.169 22.1596 123.749 30.4774 124.541C35.1605 124.987 39.5526 123.223 42.6383 120.095C48.805 127.288 57.9028 132.153 69.8472 133.291C91.2393 135.329 109.176 120.929 114.184 101.994C114.559 102.067 114.941 102.124 115.333 102.161C121.721 102.77 127.378 98.2811 127.965 92.1397C128.551 85.9983 123.847 80.5222 117.458 79.9137L117.463 79.9059Z" fill="#111527"/>
<path d="M36.3686 118.995C36.3686 118.995 37.6176 128.672 29.6092 129.247C29.0952 129.285 28.9514 129.971 29.4111 130.2C30.9821 130.992 33.6413 131.942 37.0921 131.887C40.543 131.833 43.3328 129.735 43.3328 129.735C43.3328 129.735 43.5272 132.311 39.5063 133.765C39.1781 133.882 39.2182 134.367 39.5581 134.429C45.2199 135.491 49.2882 133.585 52.3535 130.327C55.0478 127.462 57.1886 129.7 57.1886 129.7L39.4865 120.4L36.3653 118.986L36.3686 118.995Z" fill="#111527"/>
<path d="M115.507 93.774C114.154 116.556 94.2458 135.609 69.8521 133.286C43.5045 130.775 31.0079 110.133 33.2802 86.3522C35.5525 62.5711 55.612 45.0305 78.0803 47.171C100.549 49.3115 116.688 73.9201 115.507 93.774Z" fill="#FADDBE"/>
<path d="M30.4765 124.524C38.7965 125.317 46.1933 119.134 46.9978 110.715C47.8022 102.295 41.7097 94.8274 33.3898 94.0348C25.0698 93.2422 17.673 99.4249 16.8686 107.844C16.0641 116.264 22.1566 123.732 30.4765 124.524Z" fill="#FADDBE"/>
<path d="M115.342 102.16C121.732 102.768 127.387 98.2817 127.974 92.1383C128.561 85.995 123.857 80.5214 117.468 79.9127C111.079 79.304 105.424 83.7907 104.837 89.9341C104.25 96.0775 108.953 101.551 115.342 102.16Z" fill="#FADDBE"/>
<path d="M111.272 84.4138C109.678 81.3631 108.136 79.7462 107.041 74.7994C105.23 66.6097 101.77 61.207 95.4026 57.1457C88.7056 52.8759 72.8286 50.721 72.8286 50.721C72.8286 50.721 72.1251 61.5741 62.176 69.9282C52.227 78.2823 43.3759 78.7649 43.3759 78.7649C43.3759 78.7649 50.8763 97.3297 45.0682 105.815C41.5331 110.975 34.8706 110.093 32.3066 108.709C29.7427 107.324 28.01 105.511 27.8046 103.783C27.8046 103.783 31.479 105.093 33.4974 103.786C38.4246 100.599 34.526 95.4756 30.9696 94.6551C28.8876 94.1726 24.3403 95.407 21.4297 98.3827C18.5191 101.358 17.7871 103.936 17.7871 103.936C17.7871 103.936 16.1904 91.9541 15.085 90.0823C15.085 90.0823 8.72398 82.6409 9.97687 73.6643C11.2298 64.6876 15.0096 61.4035 15.0096 61.4035C15.0096 61.4035 11.3885 52.9878 17.992 44.3644C24.5954 35.741 34.0532 33.562 34.0532 33.562C34.0532 33.562 40.0713 15.7704 56.7855 11.0585C73.4956 6.34619 88.2362 14.1041 90.0597 15.1384C91.8833 16.1728 114.049 26.911 117.39 27.9582C120.732 29.0053 125.239 29.6983 125.239 29.6983C125.239 29.6983 123.909 34.6076 117.68 36.7277C117.68 36.7277 123.405 44.9238 123.905 52.1033C124.477 60.2862 123.393 67.3271 118.56 74.5215C117.461 76.1586 114.41 79.9609 113.759 80.1418C110.655 80.9991 111.272 84.4097 111.272 84.4097L111.272 84.4138Z" fill="#111527"/>
<path d="M52.0649 95.8203L27.5793 91.3145" stroke="#111527" stroke-width="4.0984" stroke-miterlimit="10"/>
</svg>
