<svg width="24" height="24" viewBox="0 0 24 24" fill="none" xmlns="http://www.w3.org/2000/svg">
<path d="M17 10L20.218 5.97755C20.6632 5.42103 20.6187 4.61874 20.1148 4.11479C19.5219 3.52185 18.544 3.58031 18.026 4.23967L13.5 10H17Z" fill="white" stroke="black" stroke-width="1.5" stroke-linecap="round"/>
<path d="M4 13V18.5C4 19.8807 5.11929 21 6.5 21H17.5C18.8807 21 20 19.8807 20 18.5V13H4Z" fill="white"/>
<path d="M4 13V13C3.44772 13 3 12.5523 3 12V11C3 10.4477 3.44772 10 4 10H20C20.5523 10 21 10.4477 21 11V12C21 12.5523 20.5523 13 20 13V13M4 13V18.5C4 19.8807 5.11929 21 6.5 21H17.5C18.8807 21 20 19.8807 20 18.5V13M4 13H20" stroke="black" stroke-width="1.5" stroke-linecap="round" stroke-linejoin="round"/>
<path d="M18 17V17.5C18 18.3284 17.3284 19 16.5 19H16" stroke="black" stroke-width="1.5" stroke-linecap="round" stroke-linejoin="round"/>
<path d="M6 3V3C5.44772 3.55228 5.44772 4.44772 6 5V5C6.55228 5.55228 6.55228 6.44772 6 7V7" stroke="black" stroke-width="1.5" stroke-linecap="round" stroke-linejoin="round"/>
<path d="M9 3V3C8.44772 3.55228 8.44772 4.44772 9 5V5C9.55228 5.55228 9.55228 6.44772 9 7V7" stroke="black" stroke-width="1.5" stroke-linecap="round" stroke-linejoin="round"/>
</svg>
