<svg width="105" height="105" viewBox="0 0 105 105" fill="none" xmlns="http://www.w3.org/2000/svg">
<path d="M17.5 20C18.8807 20 20 18.8807 20 17.5C20 16.1193 18.8807 15 17.5 15C16.1193 15 15 16.1193 15 17.5C15 18.8807 16.1193 20 17.5 20Z" fill="#E3E3E5"/>
<path d="M52.5 20C53.8807 20 55 18.8807 55 17.5C55 16.1193 53.8807 15 52.5 15C51.1193 15 50 16.1193 50 17.5C50 18.8807 51.1193 20 52.5 20Z" fill="#E3E3E5"/>
<path d="M87.5 20C88.8807 20 90 18.8807 90 17.5C90 16.1193 88.8807 15 87.5 15C86.1193 15 85 16.1193 85 17.5C85 18.8807 86.1193 20 87.5 20Z" fill="#E3E3E5"/>
<path d="M17.5 55C18.8807 55 20 53.8807 20 52.5C20 51.1193 18.8807 50 17.5 50C16.1193 50 15 51.1193 15 52.5C15 53.8807 16.1193 55 17.5 55Z" fill="#E3E3E5"/>
<path d="M52.5 55C53.8807 55 55 53.8807 55 52.5C55 51.1193 53.8807 50 52.5 50C51.1193 50 50 51.1193 50 52.5C50 53.8807 51.1193 55 52.5 55Z" fill="#E3E3E5"/>
<path d="M87.5 55C88.8807 55 90 53.8807 90 52.5C90 51.1193 88.8807 50 87.5 50C86.1193 50 85 51.1193 85 52.5C85 53.8807 86.1193 55 87.5 55Z" fill="#E3E3E5"/>
<path d="M17.5 90C18.8807 90 20 88.8807 20 87.5C20 86.1193 18.8807 85 17.5 85C16.1193 85 15 86.1193 15 87.5C15 88.8807 16.1193 90 17.5 90Z" fill="#E3E3E5"/>
<path d="M52.5 90C53.8807 90 55 88.8807 55 87.5C55 86.1193 53.8807 85 52.5 85C51.1193 85 50 86.1193 50 87.5C50 88.8807 51.1193 90 52.5 90Z" fill="#E3E3E5"/>
<path d="M87.5 90C88.8807 90 90 88.8807 90 87.5C90 86.1193 88.8807 85 87.5 85C86.1193 85 85 86.1193 85 87.5C85 88.8807 86.1193 90 87.5 90Z" fill="#E3E3E5"/>
</svg>
