<svg width="132" height="25" viewBox="0 0 132 25" fill="none" xmlns="http://www.w3.org/2000/svg">
<path d="M5.89778 0L14.6906 0L8.82872 25H0.0358887L5.89778 0Z" fill="#E6E6E6"/>
<path d="M20.5526 0L29.3454 0L23.4835 25H14.6907L20.5526 0Z" fill="#E6E6E6"/>
<path d="M35.2072 0L44.0001 0L38.1382 25H29.3453L35.2072 0Z" fill="#E6E6E6"/>
<path d="M49.8619 0L58.6547 0L52.7928 25H44L49.8619 0Z" fill="#E6E6E6"/>
<path d="M64.5167 0L73.3095 0L67.4476 25H58.6548L64.5167 0Z" fill="#E6E6E6"/>
<path d="M79.1715 0L87.9643 0L82.1024 25H73.3096L79.1715 0Z" fill="#E6E6E6"/>
<path d="M93.8261 0L102.619 0L96.7571 25H87.9642L93.8261 0Z" fill="#E6E6E6"/>
<path d="M108.481 0L117.274 0L111.412 25H102.619L108.481 0Z" fill="#E6E6E6"/>
<path d="M123.136 0L131.928 0L126.067 25H117.274L123.136 0Z" fill="#E6E6E6"/>
</svg>
