<svg width="72" height="72" viewBox="0 0 72 72" fill="none" xmlns="http://www.w3.org/2000/svg">
<rect x="0.00366211" width="72" height="72" fill="white" style="fill:white;fill-opacity:1;"/>
<path d="M27.0037 63C31.9742 63 36.0037 58.9706 36.0037 54V45H27.0037C22.0331 45 18.0037 49.0294 18.0037 54C18.0037 58.9706 22.0331 63 27.0037 63Z" fill="#0ACF83" style="fill:#0ACF83;fill:color(display-p3 0.0392 0.8118 0.5137);fill-opacity:1;"/>
<path d="M18.0037 36C18.0037 31.0294 22.0331 27 27.0037 27H36.0037V45H27.0037C22.0331 45 18.0037 40.9706 18.0037 36Z" fill="#A259FF" style="fill:#A259FF;fill:color(display-p3 0.6353 0.3490 1.0000);fill-opacity:1;"/>
<path d="M18.0037 18C18.0037 13.0294 22.0331 9 27.0037 9H36.0037V27H27.0037C22.0331 27 18.0037 22.9706 18.0037 18Z" fill="#F24E1E" style="fill:#F24E1E;fill:color(display-p3 0.9490 0.3059 0.1176);fill-opacity:1;"/>
<path d="M36.0037 9H45.0037C49.9742 9 54.0037 13.0294 54.0037 18C54.0037 22.9706 49.9742 27 45.0037 27H36.0037V9Z" fill="#FF7262" style="fill:#FF7262;fill:color(display-p3 1.0000 0.4471 0.3843);fill-opacity:1;"/>
<path d="M54.0037 36C54.0037 40.9706 49.9742 45 45.0037 45C40.0331 45 36.0037 40.9706 36.0037 36C36.0037 31.0294 40.0331 27 45.0037 27C49.9742 27 54.0037 31.0294 54.0037 36Z" fill="#1ABCFE" style="fill:#1ABCFE;fill:color(display-p3 0.1020 0.7373 0.9961);fill-opacity:1;"/>
</svg>
