<svg width="72" height="72" viewBox="0 0 72 72" fill="none" xmlns="http://www.w3.org/2000/svg">
<rect width="72" height="72" fill="white" style="fill:white;fill-opacity:1;"/>
<g clip-path="url(#clip0_202_332)">
<path d="M32.4885 16.7719C37.0673 16.7719 41.6447 16.7669 46.2235 16.7732C46.1912 18.0766 46.2769 19.4089 46.1837 20.6934C43.4116 20.7111 40.6383 20.6947 37.865 20.6997C37.8699 22.4405 37.8538 24.1813 37.8737 25.9208C40.2283 25.9107 42.5816 25.9183 44.9362 25.9183V29.7767C42.5791 29.7793 40.2233 29.7767 37.865 29.778V38.5853C36.072 38.5853 34.2815 38.5865 32.4885 38.584V16.7719Z" fill="white" style="fill:white;fill-opacity:1;"/>
<path d="M28.531 52.015C29.4766 51.144 30.8981 51.0192 32.0872 51.3633C32.8265 51.5726 33.5533 52.1222 33.6925 52.9289C33.7459 53.3991 33.7956 53.9398 33.5024 54.3457C33.2054 54.7819 32.7035 55.0113 32.2114 55.1361C32.9408 55.2785 33.7236 55.6983 33.9323 56.476C34.0702 57.2298 34.0417 58.1071 33.5049 58.7034C32.8637 59.442 31.8536 59.6992 30.9179 59.7244C30.0867 59.7093 29.2008 59.5706 28.5348 59.0235C28.0204 58.6202 27.7706 57.976 27.6401 57.3496C28.2751 57.2903 28.9125 57.337 29.5499 57.318C29.699 58.2672 30.9378 58.542 31.6249 58.0113C32.0312 57.6697 32.0126 57.042 31.8896 56.5718C31.5355 55.8369 30.5986 55.9252 29.9239 55.929C29.9227 55.4638 29.9227 55.0012 29.9239 54.5373C30.3824 54.526 30.8645 54.5953 31.2969 54.4037C31.8063 54.1567 31.8337 53.4218 31.5976 52.9743C31.0496 52.3113 29.7599 52.6302 29.7052 53.5516C29.0653 53.5541 28.4254 53.5579 27.7855 53.5478C27.8812 52.9768 28.0937 52.4045 28.5323 52.0125" fill="white" style="fill:white;fill-opacity:1;"/>
<path d="M36.2908 51.6141C37.3035 51.0671 38.5547 51.0797 39.6195 51.4679C40.4483 51.7717 41.0149 52.6011 41.0311 53.491C40.4421 53.491 39.8519 53.4973 39.2629 53.4873C39.1412 52.5419 37.8179 52.3969 37.2301 52.9717C36.794 53.5062 36.963 54.2411 36.9295 54.8776C38.0154 53.8276 40.0768 54.0091 40.8695 55.3402C41.2286 55.9201 41.2361 56.636 41.1926 57.2966C41.1267 58.2508 40.4508 59.089 39.5872 59.4369C38.5696 59.8428 37.3805 59.8353 36.3803 59.3789C35.5403 58.9932 34.9737 58.1083 34.9352 57.1781C34.9178 56.1293 34.929 55.0818 34.9302 54.0331C34.9414 53.0637 35.4359 52.0843 36.2908 51.6154M36.9319 56.2314C36.958 56.7457 36.8238 57.318 37.1096 57.7844C37.4973 58.3138 38.3223 58.3327 38.8268 57.976C39.2803 57.5802 39.2344 56.8982 39.171 56.3524C39.1051 55.8621 38.5783 55.5898 38.126 55.6617C37.6625 55.6667 37.255 55.9125 36.9307 56.2327" fill="white" style="fill:white;fill-opacity:1;"/>
<path d="M44.4877 51.289C45.4867 51.0986 46.6012 51.1692 47.4697 51.7503C48.2414 52.2772 48.5669 53.2592 48.552 54.1718C48.5371 55.1701 48.5768 56.1722 48.5321 57.1706C48.4712 58.15 47.8761 59.108 46.9466 59.4509C45.8308 59.8769 44.4939 59.8416 43.4589 59.2126C42.6736 58.7311 42.2822 57.7933 42.2735 56.8882C42.2673 56.026 42.276 55.1638 42.2697 54.3004C42.2635 53.5957 42.389 52.8508 42.8276 52.2848C43.2302 51.7541 43.8478 51.4251 44.4864 51.2902M44.971 52.7209C44.4976 52.881 44.2976 53.4142 44.2839 53.8819C44.264 54.8348 44.2827 55.7878 44.274 56.742C44.2715 57.2021 44.3435 57.7429 44.7424 58.029C45.2903 58.3656 46.2049 58.2622 46.4285 57.5714C46.6472 56.8227 46.5068 56.0285 46.5465 55.2584C46.5093 54.555 46.6683 53.7962 46.3527 53.1382C46.0992 52.6428 45.4481 52.5432 44.9698 52.7209" fill="white" style="fill:white;fill-opacity:1;"/>
<path d="M18.4269 8C18.8046 8.03403 19.1836 8.02899 19.5625 8.02395C31.2759 8.02395 42.988 8.02395 54.7026 8.02395C55.1872 8.03025 55.6805 7.9937 56.1589 8.1084C57.3194 8.42732 58.1829 9.59204 58.168 10.8135C58.1718 12.7912 58.168 14.769 58.1693 16.7468C58.1668 26.9646 58.173 37.1824 58.1668 47.4002C44.909 47.4153 31.6511 47.3876 18.3946 47.414C18.3933 37.4219 18.3946 27.431 18.3933 17.4401C18.5337 15.1875 18.4368 12.9274 18.4654 10.671C18.453 9.79372 18.4989 8.9164 18.4306 8.0416L18.4281 8L18.4269 8ZM32.4886 16.772V38.5853C34.2816 38.5879 36.0721 38.5866 37.865 38.5866V29.7793C40.2221 29.7781 42.5792 29.7806 44.9363 29.7781V25.9196C42.5817 25.9196 40.2283 25.9133 37.8737 25.9221C37.8551 24.1826 37.8713 22.4418 37.865 20.701C40.6384 20.696 43.4117 20.7124 46.1838 20.6947C46.277 19.4103 46.1925 18.0779 46.2236 16.7745C41.6448 16.7682 37.0673 16.7732 32.4886 16.7732" fill="#FF6B00" style="fill:#FF6B00;fill:color(display-p3 1.0000 0.4196 0.0000);fill-opacity:1;"/>
<path d="M17.2191 8.70222C17.618 8.47533 17.9833 8.17154 18.4293 8.04297C18.4977 8.91777 18.4517 9.79636 18.4641 10.6724C18.4356 12.9288 18.5325 15.1889 18.3921 17.4402C18.3933 27.4311 18.3921 37.422 18.3933 47.4141C17.111 48.1692 15.8523 48.9684 14.5762 49.7348C13.0554 50.6713 11.5283 51.6003 10.0037 52.5344C10.005 39.401 10.0137 26.2689 10 13.1355C12.3906 11.6329 14.8148 10.1833 17.2191 8.70222Z" fill="#FF9447" style="fill:#FF9447;fill:color(display-p3 1.0000 0.5804 0.2784);fill-opacity:1;"/>
<path d="M58.168 16.7469C59.4454 16.7456 60.7214 16.7431 62 16.7481C62 32.4996 62.0012 48.2499 61.9988 64.0001C47.0933 64.0001 32.1904 64.0026 17.285 63.9988C15.8138 64.0631 14.5415 62.6816 14.5613 61.2181C14.5638 57.3912 14.5353 53.5617 14.5763 49.736C15.8536 48.9696 17.111 48.1692 18.3933 47.4154C31.6499 47.3889 44.9065 47.4167 58.1656 47.4015C58.1718 37.1837 58.1656 26.9659 58.168 16.7481M28.5311 52.015C28.0925 52.4071 27.8801 52.9793 27.7844 53.5504C28.4243 53.5617 29.0642 53.5567 29.7041 53.5541C29.7588 52.6327 31.0498 52.3138 31.5965 52.9768C31.8326 53.4243 31.8052 54.1592 31.2958 54.4063C30.8634 54.5991 30.3813 54.5298 29.9228 54.5399C29.9215 55.0037 29.9215 55.4664 29.9228 55.9315C30.5975 55.9277 31.5356 55.8395 31.8885 56.5744C32.0115 57.0445 32.0301 57.6723 31.6238 58.0139C30.9354 58.5433 29.6979 58.2698 29.5475 57.3206C28.9101 57.3395 28.2715 57.2916 27.6378 57.3521C27.7682 57.9786 28.018 58.6214 28.5324 59.0261C29.1971 59.5719 30.0843 59.7118 30.9156 59.7269C31.8524 59.7017 32.8614 59.4433 33.5025 58.7059C34.0393 58.1097 34.0679 57.2311 33.9299 56.4786C33.7212 55.7008 32.9384 55.2811 32.209 55.1386C32.7023 55.0138 33.2043 54.7844 33.5013 54.3483C33.7933 53.9424 33.7448 53.4016 33.6914 52.9314C33.5522 52.1247 32.8241 51.5751 32.086 51.3659C30.8969 51.0218 29.4755 51.1465 28.5299 52.0176M36.2908 51.6142C35.4359 52.0831 34.9401 53.0625 34.9302 54.0319C34.9289 55.0806 34.9178 56.1281 34.9352 57.1769C34.9737 58.1059 35.5403 58.9908 36.3802 59.3778C37.3805 59.8341 38.5696 59.8429 39.5872 59.4357C40.452 59.0891 41.1267 58.2496 41.1926 57.2966C41.236 56.6349 41.2286 55.9201 40.8695 55.3403C40.0755 54.0092 38.0154 53.8277 36.9294 54.8777C36.963 54.2424 36.7927 53.5062 37.2301 52.973C37.8178 52.397 39.1411 52.5419 39.2629 53.4886C39.8519 53.4987 40.4421 53.4924 41.031 53.4924C41.0149 52.6025 40.447 51.773 39.6195 51.4692C38.5547 51.0823 37.3034 51.0684 36.2908 51.6155M44.4877 51.289C43.8491 51.4239 43.2303 51.7529 42.829 52.2835C42.3891 52.8495 42.2636 53.5945 42.2711 54.3004C42.2773 55.1638 42.2686 56.026 42.2748 56.8882C42.2823 57.7933 42.6737 58.7311 43.4602 59.2126C44.4952 59.8416 45.8322 59.8769 46.948 59.4509C47.8774 59.108 48.4726 58.15 48.5334 57.1706C48.5782 56.1723 48.5384 55.1701 48.5533 54.1718C48.5682 53.2604 48.2439 52.2772 47.4711 51.7503C46.6013 51.1705 45.488 51.0986 44.489 51.2902" fill="#923B00" style="fill:#923B00;fill:color(display-p3 0.5725 0.2314 0.0000);fill-opacity:1;"/>
<path d="M44.9712 52.7208C45.4495 52.5431 46.0994 52.6427 46.3541 53.138C46.6697 53.796 46.5107 54.5549 46.5479 55.2582C46.5094 56.0272 46.6498 56.8213 46.4299 57.5713C46.2062 58.2621 45.2917 58.3654 44.7438 58.0289C44.3449 57.7427 44.2729 57.2007 44.2753 56.7419C44.284 55.7877 44.2642 54.8347 44.2853 53.8817C44.2989 53.4141 44.499 52.8809 44.9724 52.7208" fill="#923B00" style="fill:#923B00;fill:color(display-p3 0.5725 0.2314 0.0000);fill-opacity:1;"/>
<path d="M36.9318 56.2313C37.2561 55.9112 37.6637 55.6666 38.1272 55.6603C38.5782 55.5885 39.1063 55.8607 39.1721 56.3511C39.2355 56.8969 39.2815 57.5788 38.8279 57.9746C38.3235 58.3326 37.4972 58.3137 37.1108 57.783C36.825 57.3167 36.9604 56.7456 36.9331 56.2301" fill="#923B00" style="fill:#923B00;fill:color(display-p3 0.5725 0.2314 0.0000);fill-opacity:1;"/>
</g>
<defs>
<clipPath id="clip0_202_332">
<rect width="52" height="56" fill="white" style="fill:white;fill-opacity:1;" transform="translate(10 8)"/>
</clipPath>
</defs>
</svg>
