<svg width="72" height="72" viewBox="0 0 72 72" fill="none" xmlns="http://www.w3.org/2000/svg">
<path d="M12.7519 3.62665e-05H59.2518C62.6337 0.0104533 72.0019 0 72.0019 0C72.0019 0 72.0007 9.61561 72.0019 13.0817V58.9183C72.006 62.3815 72.0019 72 72.0019 72C72.0019 72 62.6537 71.9896 59.2718 72H12.7519C9.36997 71.9896 0.00187587 72 0.00187587 72C0.00187587 72 0.00301725 62.3844 0.00185679 58.9183V13.0817C-0.00231354 9.61849 0.00184404 3.62665e-05 0.00184404 3.62665e-05C0.00184404 3.62665e-05 9.36303 0.00505922 12.7519 3.62665e-05Z" fill="#330000" style="fill:#330000;fill:color(display-p3 0.2000 0.0000 0.0000);fill-opacity:1;"/>
<path fill-rule="evenodd" clip-rule="evenodd" d="M52.2423 25.8001C51.2475 25.8223 50.2855 25.444 49.5723 24.7501C48.8922 23.9954 48.5335 23.0052 48.5723 21.9901C48.5363 20.987 48.9291 20.0161 49.6523 19.3201C50.3732 18.6383 51.3301 18.262 52.3223 18.2701C53.323 18.231 54.2945 18.6116 55.0023 19.3201C55.6729 20.0485 56.0318 21.0104 56.0023 22.0001C56.0494 23.0135 55.6894 24.0036 55.0023 24.7501C54.2799 25.4866 53.2715 25.8702 52.2423 25.8001ZM25.0023 44.8201H36.1923L38.6523 51.9601C38.7099 52.1728 38.9131 52.3124 39.1323 52.2901H45.4523C45.7523 52.2901 45.8423 52.1401 45.7523 51.8101L34.7523 20.9101C34.7223 20.7601 34.6023 20.6701 34.3623 20.6701H26.5923C26.4383 20.7004 26.3337 20.8442 26.3523 21.0001C26.3496 21.6342 26.2894 22.2668 26.1723 22.8901C26.0909 23.141 26.0234 23.3735 25.9602 23.5907L25.9602 23.5908L25.9602 23.5909C25.9302 23.6939 25.9013 23.7936 25.8723 23.8901L16.2123 51.7001C16.1223 52.0601 16.2123 52.2401 16.5423 52.2401H22.1523C22.4217 52.2661 22.6674 52.0851 22.7223 51.8201L25.0023 44.8201ZM34.3923 38.7301H26.7923C27.0685 37.9568 27.3221 37.1156 27.5877 36.2344C27.7549 35.6799 27.9269 35.1095 28.1123 34.5301C28.4095 33.6014 28.6951 32.6728 28.9764 31.7584L28.9764 31.7584L28.9764 31.7584C29.1495 31.1958 29.3209 30.6386 29.4923 30.0901C29.8955 28.8191 30.2293 27.5272 30.4923 26.2201H30.5523C30.7623 26.9401 30.9723 27.6901 31.2123 28.5601C31.4523 29.4301 31.7223 30.3001 32.0223 31.2301L32.0224 31.2304C32.3224 32.1603 32.6223 33.0902 32.8923 33.9901C33.1623 34.8901 33.4323 35.7901 33.7023 36.5701C33.9723 37.3501 34.2123 38.1001 34.3923 38.7301ZM48.8823 28.7401V51.8001V51.8401C48.8636 51.9669 48.9037 52.0953 48.9914 52.1888C49.079 52.2822 49.2046 52.3306 49.3323 52.3201H55.2123C55.4823 52.3201 55.6023 52.1701 55.6023 51.8401V28.7401C55.6023 28.4701 55.4823 28.3201 55.2123 28.3201H49.2723C49.0023 28.3201 48.8823 28.4401 48.8823 28.7401Z" fill="#FF9A00" style="fill:#FF9A00;fill:color(display-p3 1.0000 0.6039 0.0000);fill-opacity:1;"/>
</svg>
