<svg width="72" height="71" viewBox="0 0 72 71" fill="none" xmlns="http://www.w3.org/2000/svg">
<path d="M12.7519 3.57628e-05H59.2518C62.6337 0.0103082 72.0019 0 72.0019 0C72.0019 0 72.0007 9.48206 72.0019 12.9V58.1C72.006 61.5152 72.0019 71 72.0019 71C72.0019 71 62.6537 70.9898 59.2718 71H12.7519C9.36997 70.9898 0.00187587 71 0.00187587 71C0.00187587 71 0.00301725 61.518 0.00185679 58.1V12.9C-0.00231354 9.4849 0.00184404 3.57628e-05 0.00184404 3.57628e-05C0.00184404 3.57628e-05 9.36303 0.00498896 12.7519 3.57628e-05Z" fill="#42091F" style="fill:#42091F;fill:color(display-p3 0.2588 0.0353 0.1216);fill-opacity:1;"/>
<rect x="20.469" y="21.5886" width="6.90301" height="29.3378" fill="#EB4869" style="fill:#EB4869;fill:color(display-p3 0.9216 0.2824 0.4118);fill-opacity:1;"/>
<path fill-rule="evenodd" clip-rule="evenodd" d="M45.5009 19V28.0602C41.7617 27.6288 31.2542 30 31.2542 39.2776C31.2542 48.5552 39.1973 50.366 42.5 50.5C45.8027 50.634 49 50 51.541 49.2007V19H45.5009ZM45.4925 33.2374V45.7491C42.9039 46.0367 37.7267 45.2314 37.7267 39.709C37.7267 34.1866 42.9039 33.0936 45.4925 33.2374Z" fill="#EB4869" style="fill:#EB4869;fill:color(display-p3 0.9216 0.2824 0.4118);fill-opacity:1;"/>
</svg>
