<svg width="72" height="72" viewBox="0 0 72 72" fill="none" xmlns="http://www.w3.org/2000/svg">
<rect x="0.00366211" width="72" height="72" fill="white" style="fill:white;fill-opacity:1;"/>
<circle cx="36.3336" cy="35.3301" r="25.19" fill="url(#paint0_linear_202_311)" style=""/>
<path d="M34.2535 50.2801C33.0495 50.2681 31.8923 49.8123 31.0035 49.0001L23.4035 42.2301C22.1237 41.0863 21.5325 39.3582 21.8435 37.6701L23.7435 27.4801C24.0832 25.749 25.329 24.3351 27.0035 23.7801L36.6935 20.3601C38.3599 19.7781 40.2107 20.1414 41.5335 21.3101L49.4035 28.3801C50.7225 29.5528 51.3072 31.3452 50.9335 33.0701L48.7035 43.2601C48.3385 44.9454 47.1163 46.3157 45.4835 46.8701L35.7935 50.0001C35.2993 50.1783 34.7788 50.2729 34.2535 50.2801Z" fill="black" style="fill:black;fill-opacity:1;"/>
<path fill-rule="evenodd" clip-rule="evenodd" d="M8.50493 29.7828C11.1569 16.5213 22.8096 6.98149 36.3336 7.00003C43.8363 7.00921 51.029 9.99418 56.3336 15.3C65.8968 24.8627 67.3707 39.85 59.8535 51.0924C52.3364 62.3348 37.923 66.6993 25.4319 61.5155C12.9408 56.3317 5.85299 43.0442 8.50493 29.7828ZM48.7936 13.19C40.1936 8.24003 30.3136 10.46 28.1936 11.33C28.0982 11.3668 28.0349 11.4579 28.0336 11.56C28.0318 11.6626 28.0906 11.7566 28.1836 11.8C35.8836 15.3767 42.9177 20.2396 48.9836 26.18C49.112 26.2708 49.278 26.2897 49.4236 26.23C49.5637 26.1615 49.6582 26.0252 49.6736 25.87C49.9436 20.99 49.8436 16.81 49.7936 14.81C49.8167 14.118 49.4226 13.4795 48.7936 13.19ZM49.1336 32.68L46.9436 42.88C46.7196 43.9365 45.9619 44.8003 44.9436 45.16L35.2536 48.31C34.2143 48.6485 33.0735 48.4127 32.2536 47.69L24.6936 40.92C23.8853 40.2099 23.5062 39.1295 23.6936 38.07L25.5736 27.87C25.7701 26.7823 26.5328 25.8823 27.5736 25.51L37.2936 22.09C38.3308 21.7447 39.4735 21.977 40.2936 22.7L48.1336 29.7C48.985 30.437 49.3681 31.5787 49.1336 32.68ZM25.1236 13.56C24.5333 13.2436 23.8238 13.2436 23.2336 13.56C13.7536 19.6 12.0036 28.22 11.6736 30.52C11.6609 30.617 11.7084 30.7119 11.7936 30.76C11.8789 30.8146 11.9882 30.8146 12.0736 30.76C18.9579 25.8446 26.6221 22.1257 34.7436 19.76C34.8824 19.69 34.9764 19.5546 34.9936 19.4C35.007 19.2445 34.9389 19.0931 34.8136 19C31.8616 16.7307 28.5981 14.8985 25.1236 13.56ZM20.1836 54.2C20.1946 54.3046 20.1438 54.4061 20.0536 54.46C19.9682 54.5146 19.8589 54.5146 19.7736 54.46C17.9436 53.06 11.5236 46.78 11.0536 35.55C11.0536 34.86 11.4436 34.49 12.0536 33.94C14.9987 31.7235 18.1857 29.8481 21.5536 28.35C21.6991 28.2904 21.8651 28.3092 21.9936 28.4C22.121 28.4876 22.1932 28.6357 22.1836 28.79C20.0687 37.0833 19.3922 45.678 20.1836 54.2ZM23.8736 57.17C32.5036 62.1 42.3236 59.87 44.4336 59C44.5171 58.9645 44.5773 58.8894 44.5936 58.8C44.5922 58.6979 44.5289 58.6068 44.4336 58.57C36.7382 54.9999 29.7102 50.1398 23.6536 44.2C23.5174 44.1214 23.3497 44.1214 23.2136 44.2C23.0724 44.2641 22.9742 44.3964 22.9536 44.55C22.6936 49.39 22.8136 53.55 22.8736 55.55C22.8531 56.2414 23.2464 56.8785 23.8736 57.17ZM49.2636 56.89C48.6733 57.2065 47.9638 57.2065 47.3736 56.89C43.9127 55.5358 40.6632 53.6938 37.7236 51.42C37.602 51.3247 37.5378 51.1737 37.5536 51.02C37.5627 50.8626 37.6593 50.7236 37.8036 50.66C45.9248 48.3617 53.6019 44.7142 60.5136 39.87C60.5989 39.8155 60.7082 39.8155 60.7936 39.87C60.8842 39.9229 60.9321 40.0268 60.9136 40.13C60.6136 42.36 58.7836 50.96 49.2636 56.95V56.89ZM51.0036 42.16C54.3688 40.6913 57.5588 38.8498 60.5136 36.67L60.5614 36.6269C61.1459 36.1003 61.5541 35.7326 61.5736 35.09C61.1936 23.83 54.8336 17.5 53.0236 16.09C52.9382 16.0355 52.8289 16.0355 52.7436 16.09C52.6522 16.1372 52.6032 16.2392 52.6236 16.34C53.3154 24.8619 52.5615 33.4395 50.3936 41.71C50.3776 41.865 50.4447 42.0168 50.57 42.1093C50.6954 42.2017 50.8603 42.221 51.0036 42.16Z" fill="#EDEDED" style="fill:#EDEDED;fill:color(display-p3 0.9294 0.9294 0.9294);fill-opacity:1;"/>
<defs>
<linearGradient id="paint0_linear_202_311" x1="69.4025" y1="39.6102" x2="40.1763" y2="-1.70956" gradientUnits="userSpaceOnUse">
<stop stop-color="#006EAD" style="stop-color:#006EAD;stop-color:color(display-p3 0.0000 0.4314 0.6784);stop-opacity:1;"/>
<stop offset="0.05" stop-color="#0075B9" style="stop-color:#0075B9;stop-color:color(display-p3 0.0000 0.4588 0.7255);stop-opacity:1;"/>
<stop offset="0.17" stop-color="#0083D2" style="stop-color:#0083D2;stop-color:color(display-p3 0.0000 0.5137 0.8235);stop-opacity:1;"/>
<stop offset="0.31" stop-color="#008FE6" style="stop-color:#008FE6;stop-color:color(display-p3 0.0000 0.5608 0.9020);stop-opacity:1;"/>
<stop offset="0.47" stop-color="#0097F4" style="stop-color:#0097F4;stop-color:color(display-p3 0.0000 0.5922 0.9569);stop-opacity:1;"/>
<stop offset="0.66" stop-color="#009CFD" style="stop-color:#009CFD;stop-color:color(display-p3 0.0000 0.6118 0.9922);stop-opacity:1;"/>
<stop offset="1" stop-color="#009DFF" style="stop-color:#009DFF;stop-color:color(display-p3 0.0000 0.6157 1.0000);stop-opacity:1;"/>
</linearGradient>
</defs>
</svg>
