<svg width="72" height="72" viewBox="0 0 72 72" fill="none" xmlns="http://www.w3.org/2000/svg">
<g clip-path="url(#clip0_202_301)">
<path d="M12.7519 3.62665e-05H59.2518C62.6337 0.0104533 72.0019 0 72.0019 0C72.0019 0 72.0007 9.61561 72.0019 13.0817V58.9183C72.006 62.3815 72.0019 72 72.0019 72C72.0019 72 62.6537 71.9896 59.2718 72H12.7519C9.36997 71.9896 0.00187587 72 0.00187587 72C0.00187587 72 0.00301725 62.3844 0.00185679 58.9183V13.0817C-0.00231354 9.61849 0.00184404 3.62665e-05 0.00184404 3.62665e-05C0.00184404 3.62665e-05 9.36303 0.00505922 12.7519 3.62665e-05Z" fill="#FFD02F" style="fill:#FFD02F;fill:color(display-p3 1.0000 0.8157 0.1843);fill-opacity:1;"/>
<path fill-rule="evenodd" clip-rule="evenodd" d="M49.95 9H42L48.6 20.55L34.2 9H26.25L33.45 23.1L18.45 9H10.5L18.45 27L10.5 63H18.45L33.6 24.45L26.25 63H34.2L48.75 21.9L42.15 63H50.1L64.5 18L49.95 9Z" fill="#050038" style="fill:#050038;fill:color(display-p3 0.0196 0.0000 0.2196);fill-opacity:1;"/>
</g>
<defs>
<clipPath id="clip0_202_301">
<rect width="72" height="72" fill="white" style="fill:white;fill-opacity:1;"/>
</clipPath>
</defs>
</svg>
