<svg width="60" height="60" viewBox="0 0 60 60" fill="none" xmlns="http://www.w3.org/2000/svg">
<rect y="0.279297" width="59.28" height="59.2802" fill="white"/>
<g clip-path="url(#clip0_1940_735)">
<path d="M11.601 10.8551L35.2838 9.06917C38.1586 8.79441 38.9115 9.00048 40.7596 10.3056L48.3573 15.6634C49.5893 16.5564 50 16.8311 50 17.8615V47.1922C50 49.0468 49.3155 50.1458 46.9883 50.2832L19.4725 51.9318C17.6928 52.0005 16.8715 51.7944 15.9816 50.6267L10.4374 43.4142C9.41068 42.0404 9 41.0788 9 39.911V13.8088C9 12.2976 9.68447 10.9925 11.601 10.8551Z" fill="white"/>
<path fill-rule="evenodd" clip-rule="evenodd" d="M35.2838 9.06901L11.601 10.8549C9.68447 10.9923 9 12.2974 9 13.8086V39.9109C9 41.0786 9.41068 42.1089 10.4374 43.4141L15.9816 50.6952C16.8715 51.8629 17.7613 52.1377 19.4725 52.0003L46.9883 50.3518C49.3155 50.2144 50 49.1153 50 47.2607V17.8613C50 16.8997 49.6578 16.6249 48.4942 15.8006C48.4257 15.7319 48.3573 15.7319 48.2888 15.6633L40.7596 10.3741C38.98 9.00032 38.227 8.86294 35.2838 9.06901ZM20.0885 17.3805C17.8297 17.5179 17.3506 17.5866 16.0501 16.4875L12.8331 13.946C12.4908 13.6026 12.6277 13.1904 13.5175 13.1217L36.3105 11.4732C38.227 11.3358 39.1853 11.954 39.9382 12.5722L43.8397 15.3885C44.0451 15.4572 44.4558 15.938 43.9082 15.938L20.3623 17.3805H20.0885ZM17.4875 46.9859V22.0514C17.4875 20.9524 17.8297 20.4716 18.788 20.4029L45.8247 18.823C46.7145 18.7543 47.1252 19.3038 47.1252 20.4029V45.1313C47.1252 46.2303 46.9199 47.1233 45.4825 47.192L19.6093 48.7032C18.172 48.8406 17.4875 48.2911 17.4875 46.9859ZM43.0184 23.4252C43.1553 24.1808 43.0184 24.9364 42.2654 25.0051L41.0334 25.2799V43.6888C39.9382 44.307 38.98 44.5818 38.1586 44.5818C36.8581 44.5818 36.5159 44.1696 35.4891 42.9332L27.2755 30.0195V42.4524L29.8765 43.0706C29.8765 43.0706 29.8765 44.5818 27.823 44.5818L22.0735 44.9252C21.9366 44.5818 22.0735 43.7575 22.621 43.6201L24.1269 43.208V26.7224L22.0735 26.5163C21.9366 25.7607 22.3472 24.6617 23.5109 24.593L29.6711 24.1808L38.1586 37.2319V25.692L35.9683 25.4173C35.8314 24.5243 36.4474 23.8374 37.2688 23.7687L43.0184 23.4252Z" fill="black"/>
</g>
<defs>
<clipPath id="clip0_1940_735">
<rect width="41" height="43" fill="white" transform="translate(9 9)"/>
</clipPath>
</defs>
</svg>
