<svg width="72" height="71" viewBox="0 0 72 71" fill="none" xmlns="http://www.w3.org/2000/svg">
<path d="M12.7519 3.57628e-05H59.2518C62.6337 0.0103082 72.0019 0 72.0019 0C72.0019 0 72.0007 9.48206 72.0019 12.9V58.1C72.006 61.5152 72.0019 71 72.0019 71C72.0019 71 62.6537 70.9898 59.2718 71H12.7519C9.36997 70.9898 0.00187587 71 0.00187587 71C0.00187587 71 0.00301725 61.518 0.00185679 58.1V12.9C-0.00231354 9.4849 0.00184404 3.57628e-05 0.00184404 3.57628e-05C0.00184404 3.57628e-05 9.36303 0.00498896 12.7519 3.57628e-05Z" fill="#001E36" style="fill:#001E36;fill:color(display-p3 0.0000 0.1176 0.2118);fill-opacity:1;"/>
<path fill-rule="evenodd" clip-rule="evenodd" d="M14.0022 50.53V19.66C14.0022 19.45 14.0922 19.33 14.3022 19.33H15.9822C16.6622 19.33 17.4522 19.33 18.2622 19.27C18.6672 19.24 19.0872 19.24 19.5222 19.24C19.9572 19.24 20.4072 19.24 20.8722 19.21C21.4933 19.1699 22.1011 19.1834 22.7044 19.1968C23.0044 19.2034 23.3033 19.21 23.6022 19.21C25.7011 19.1497 27.794 19.4647 29.7822 20.14C31.2811 20.654 32.6473 21.4942 33.7822 22.6C34.7574 23.5611 35.5145 24.7206 36.0022 26C36.4564 27.2502 36.6899 28.5699 36.6922 29.9C36.7828 32.1667 36.1526 34.4038 34.8922 36.29C33.6865 37.9676 32.0034 39.2431 30.0622 39.95C27.8888 40.6787 25.6036 41.0173 23.3122 40.95H21.8122H20.5222V50.5C20.5363 50.5999 20.5091 50.7011 20.4468 50.7804C20.3845 50.8597 20.2925 50.9101 20.1922 50.92H14.3622C14.1222 50.92 14.0022 50.8 14.0022 50.53ZM20.5422 25.12V35.2C20.7603 35.2 20.9703 35.2162 21.1722 35.2317H21.1722C21.3591 35.2462 21.5391 35.26 21.7122 35.26H23.3022C24.4733 35.2613 25.6375 35.0791 26.7522 34.72C27.7086 34.4388 28.563 33.8865 29.2122 33.13C29.8912 32.2338 30.2217 31.1216 30.1422 30C30.1703 29.0626 29.931 28.1365 29.4522 27.33C28.952 26.5511 28.2163 25.952 27.3522 25.62C26.226 25.1789 25.0209 24.9746 23.8122 25.02H21.8122C21.403 24.9832 20.9914 24.9832 20.5822 25.02L20.5422 25.12ZM52.5222 32.37C53.5253 32.5631 54.4953 32.8999 55.4022 33.37C55.5894 33.4304 55.7923 33.4198 55.9722 33.34C56.0673 33.2697 56.123 33.1582 56.1222 33.04V28.15C56.1168 28.028 56.0967 27.9071 56.0622 27.79C56.0017 27.664 55.8939 27.5669 55.7622 27.52C54.9349 27.1818 54.0679 26.9499 53.1822 26.83C51.9503 26.6506 50.7071 26.5604 49.4622 26.56C47.6343 26.4875 45.815 26.8473 44.1522 27.61C42.858 28.207 41.7641 29.1655 41.0022 30.37C40.3464 31.4672 40.0008 32.7218 40.0022 34C39.9466 35.0646 40.1562 36.1264 40.6122 37.09C41.1733 38.0988 41.9522 38.9699 42.8922 39.64C44.2121 40.5424 45.6442 41.2686 47.1522 41.8C48.1886 42.1419 49.1767 42.6158 50.0922 43.21C50.5048 43.4772 50.7706 43.9202 50.8122 44.41C50.8109 44.952 50.4948 45.4439 50.0022 45.67C49.223 45.9891 48.3831 46.1325 47.5422 46.09C46.3478 46.0916 45.1582 45.9404 44.0022 45.64C42.6844 45.34 41.4221 44.8337 40.2622 44.14C40.1817 44.0816 40.0727 44.0816 39.9922 44.14C39.9119 44.2061 39.8674 44.3061 39.8722 44.41V49.69C39.856 49.9294 39.9865 50.1548 40.2022 50.26C41.1731 50.7282 42.2022 51.0645 43.2622 51.26C44.6059 51.5249 45.9726 51.6555 47.3422 51.65C49.2012 51.6873 51.0484 51.3471 52.7722 50.65C54.1278 50.1053 55.2953 49.1775 56.1322 47.98C56.9193 46.7964 57.3274 45.4012 57.3022 43.98C57.3312 42.9088 57.0942 41.8471 56.6122 40.89C56.0414 39.8759 55.2269 39.0201 54.2422 38.4C52.7937 37.4908 51.243 36.7557 49.6222 36.21C48.9022 35.9 48.1822 35.57 47.4922 35.21C47.1102 35.0063 46.7708 34.7314 46.4922 34.4C46.311 34.179 46.2058 33.9055 46.1922 33.62C46.1977 33.3333 46.2806 33.0534 46.4322 32.81C46.6571 32.5017 46.9886 32.2879 47.3622 32.21C47.9481 32.0493 48.555 31.9785 49.1622 32C50.2922 32.0029 51.4186 32.127 52.5222 32.37Z" fill="#31A8FF" style="fill:#31A8FF;fill:color(display-p3 0.1922 0.6588 1.0000);fill-opacity:1;"/>
</svg>
