<svg width="72" height="71" viewBox="0 0 72 71" fill="none" xmlns="http://www.w3.org/2000/svg">
<path d="M12.7555 3.57628e-05H59.2555C62.6374 0.0103082 72.0055 0 72.0055 0C72.0055 0 72.0044 9.48206 72.0055 12.9V58.1C72.0097 61.5152 72.0055 71 72.0055 71C72.0055 71 62.6574 70.9898 59.2755 71H12.7555C9.37363 70.9898 0.00553798 71 0.00553798 71C0.00553798 71 0.00667936 61.518 0.0055189 58.1V12.9C0.00134857 9.4849 0.00550615 3.57628e-05 0.00550615 3.57628e-05C0.00550615 3.57628e-05 9.36669 0.00498896 12.7555 3.57628e-05Z" fill="#000057" style="fill:#000057;fill:color(display-p3 0.0000 0.0000 0.3412);fill-opacity:1;"/>
<path fill-rule="evenodd" clip-rule="evenodd" d="M17.0037 19.66V50.53C17.0037 50.8 17.1237 50.92 17.3637 50.92H23.1937C23.294 50.9101 23.386 50.8597 23.4482 50.7804C23.5105 50.7011 23.5378 50.5999 23.5237 50.5V40.95H24.8137H26.3137C28.605 41.0173 30.8902 40.6787 33.0637 39.95C35.0049 39.2431 36.688 37.9676 37.8937 36.29C39.1541 34.4038 39.7842 32.1667 39.6937 29.9C39.6913 28.5699 39.4579 27.2502 39.0037 26C38.5159 24.7206 37.7588 23.5611 36.7837 22.6C35.6487 21.4942 34.2826 20.654 32.7837 20.14C30.7954 19.4647 28.7026 19.1497 26.6037 19.21C26.3048 19.21 26.0059 19.2034 25.7059 19.1968C25.1026 19.1834 24.4948 19.1699 23.8737 19.21C23.4087 19.24 22.9587 19.24 22.5237 19.24C22.0887 19.24 21.6687 19.24 21.2637 19.27C20.4537 19.33 19.6637 19.33 18.9837 19.33H17.3037C17.0937 19.33 17.0037 19.45 17.0037 19.66ZM23.5437 35.2V25.12L23.5837 25.02C23.9928 24.9832 24.4045 24.9832 24.8137 25.02H26.8137C28.0224 24.9746 29.2274 25.1789 30.3537 25.62C31.2178 25.952 31.9534 26.5511 32.4537 27.33C32.9325 28.1365 33.1718 29.0626 33.1437 30C33.2231 31.1216 32.8927 32.2338 32.2137 33.13C31.5645 33.8865 30.71 34.4388 29.7537 34.72C28.6389 35.0791 27.4748 35.2613 26.3037 35.26H24.7137C24.5406 35.26 24.3606 35.2462 24.1737 35.2317C23.9718 35.2162 23.7618 35.2 23.5437 35.2Z" fill="#9999F8" style="fill:#9999F8;fill:color(display-p3 0.6000 0.6000 0.9725);fill-opacity:1;"/>
<path d="M43.0015 50.5V26C43.0015 25.7239 43.2253 25.5 43.5015 25.5H48.5015C48.7776 25.5 49.0015 25.7239 49.0015 26V28C49.0015 28.2761 49.2253 28.5 49.5015 28.5H49.7715C49.9175 28.5 50.0557 28.4353 50.1538 28.3273C52.3446 25.9137 55.6861 25.1392 57.5026 25.0178C57.7781 24.9994 58.0015 25.2239 58.0015 25.5V31.5C58.0015 31.7761 57.7772 31.9994 57.5011 32.0052C52.8728 32.1033 50.6871 33.5532 50.0777 34.3858C50.0242 34.4589 50.0015 34.5479 50.0015 34.6385V50.5C50.0015 50.7761 49.7776 51 49.5015 51H43.5015C43.2253 51 43.0015 50.7761 43.0015 50.5Z" fill="#9999F8" style="fill:#9999F8;fill:color(display-p3 0.6000 0.6000 0.9725);fill-opacity:1;"/>
</svg>
