<svg width="40" height="40" viewBox="0 0 40 40" fill="none" xmlns="http://www.w3.org/2000/svg">
<path d="M24.3752 1.03419L36.7562 19.1294C37.3911 20.558 36.661 22.9072 33.7403 22.7802C30.8197 22.6532 29.1901 19.976 28.5022 18.6532L28.5022 36.7485C28.5022 37.7009 27.4229 38.9707 25.6451 38.9707C23.8673 38.9707 22.4705 37.5421 22.4705 36.7485L22.4705 30.7167C20.8653 31.7349 17.3423 31.2316 16.5975 28.9707C15.0102 29.2882 11.9141 29.7218 10.7245 27.0659C10.6437 26.8857 10.7245 26.8143 10.7245 26.5897C8.8197 26.9601 5.91398 27.0659 5.01018 24.5263C3.94581 21.5354 5.01018 15.9548 5.96256 11.6691C6.72446 8.24054 8.71388 3.15059 9.61335 1.03419L24.3752 1.03419Z" fill="white"/>
<path fill-rule="evenodd" clip-rule="evenodd" d="M25.6451 37.9365C26.9728 37.9365 27.4705 37.0159 27.4705 36.746L27.4705 18.6508C27.4705 18.1753 27.7954 17.7615 28.2573 17.6486C28.7191 17.5357 29.1983 17.753 29.4177 18.1748C29.7435 18.8014 30.2643 19.6908 31.0102 20.4298C31.748 21.1608 32.6562 21.6979 33.7852 21.747C34.9364 21.7971 35.4662 21.3742 35.7065 20.9893C35.9682 20.57 35.9961 20.0301 35.8438 19.6205L23.8311 2.06349L10.3003 2.06349C9.3281 4.42337 7.64393 8.85684 6.96979 11.8905C6.49502 14.0269 6.00138 16.4475 5.75577 18.693C5.50582 20.9781 5.53406 22.9185 5.98226 24.1779C6.2886 25.0387 6.90054 25.4545 7.72051 25.6407C8.3314 25.7794 9.02369 25.777 9.69277 25.7029L9.69277 20.5556C9.69277 19.9857 10.1547 19.5238 10.7245 19.5238C11.2943 19.5238 11.7563 19.9857 11.7563 20.5556L11.7563 26.826C12.1831 27.6268 12.8637 27.979 13.6789 28.1127C14.2997 28.2145 14.9607 28.1793 15.563 28.0982C15.561 27.7124 15.558 27.2961 15.5549 26.8694C15.5429 25.1914 15.5297 23.3522 15.567 22.57C15.5936 22.0103 16.062 21.5743 16.6221 21.5876C17.1822 21.6009 17.6293 22.0588 17.6293 22.619L17.6293 28.7809C17.8901 29.3783 18.5363 29.8484 19.4516 30.0675C20.1865 30.2435 20.9101 30.2093 21.4388 30.052L21.4388 22.7778C21.4388 22.208 21.9007 21.746 22.4705 21.746C23.0404 21.746 23.5023 22.208 23.5023 22.7778L23.5023 36.7128C23.5078 36.7288 23.5266 36.7806 23.583 36.8679C23.6738 37.0083 23.8248 37.1806 24.035 37.3486C24.459 37.6871 25.0318 37.9365 25.6451 37.9365ZM21.4388 32.1668L21.4388 36.746C21.4388 37.2211 21.6355 37.6562 21.8501 37.9882C22.0768 38.3389 22.3862 38.6725 22.7473 38.961C23.4662 39.5351 24.4807 40 25.6451 40C27.8731 40 29.534 38.3809 29.534 36.746L29.534 21.8719C29.542 21.8798 29.5499 21.8877 29.5579 21.8956C30.537 22.8657 31.9039 23.7307 33.6956 23.8086C35.465 23.8855 36.7606 23.1973 37.4568 22.0821C38.1154 21.0273 38.1488 19.7197 37.6991 18.708C37.6737 18.6508 37.6431 18.596 37.6078 18.5444L25.2268 0.449134C25.0345 0.168063 24.7159 -1.16134e-06 24.3753 -1.19111e-06L9.6134 -2.48164e-06C9.19954 -2.51782e-06 8.82573 0.247297 8.66386 0.628183C7.76158 2.75119 5.73934 7.91527 4.95544 11.4428C4.47782 13.5921 3.96309 16.1046 3.70451 18.4686C3.45027 20.7929 3.42203 23.1383 4.0382 24.8697C4.63566 26.5486 5.92849 27.3498 7.26351 27.6529C8.15586 27.8556 9.08911 27.8455 9.91306 27.7548C10.708 29.2846 12.0514 29.9368 13.3449 30.149C14.2933 30.3046 15.2469 30.2325 16.0093 30.1194C16.6931 31.1954 17.8636 31.8092 18.9712 32.0743C19.7611 32.2634 20.6312 32.3046 21.4388 32.1668Z" fill="#040404"/>
</svg>
