<svg width="72" height="72" viewBox="0 0 72 72" fill="none" xmlns="http://www.w3.org/2000/svg">
<rect width="72" height="72" fill="white" style="fill:white;fill-opacity:1;"/>
<path d="M35.5 12L20.56 13.58L9 29.12L35.5 60L62 29.12L50.44 13.58L35.5 12V12Z" fill="#FDB300" style="fill:#FDB300;fill:color(display-p3 0.9922 0.7020 0.0000);fill-opacity:1;"/>
<path d="M10 29L36 60L20.53 29H10V29Z" fill="#EB6C00" style="fill:#EB6C00;fill:color(display-p3 0.9216 0.4235 0.0000);fill-opacity:1;"/>
<path d="M51.47 29L36 60L62 29H51.47V29Z" fill="#EB6C00" style="fill:#EB6C00;fill:color(display-p3 0.9216 0.4235 0.0000);fill-opacity:1;"/>
<path d="M20 29L36 60L52 29H20V29Z" fill="#FDAD00" style="fill:#FDAD00;fill:color(display-p3 0.9922 0.6784 0.0000);fill-opacity:1;"/>
<path d="M20.84 13.57L20 29L36 12L20.84 13.57V13.57Z" fill="#FDD231" style="fill:#FDD231;fill:color(display-p3 0.9922 0.8235 0.1922);fill-opacity:1;"/>
<path d="M52 29L51.16 13.57L36 12L52 29V29Z" fill="#FDD231" style="fill:#FDD231;fill:color(display-p3 0.9922 0.8235 0.1922);fill-opacity:1;"/>
<path d="M51.86 29H63L51 13L51.86 29V29Z" fill="#FDAD00" style="fill:#FDAD00;fill:color(display-p3 0.9922 0.6784 0.0000);fill-opacity:1;"/>
<path d="M9 29H20.14L21 13L9 29V29Z" fill="#FDAD00" style="fill:#FDAD00;fill:color(display-p3 0.9922 0.6784 0.0000);fill-opacity:1;"/>
<path d="M36 12L20 29H52L36 12V12Z" fill="#FEEEB7" style="fill:#FEEEB7;fill:color(display-p3 0.9961 0.9333 0.7176);fill-opacity:1;"/>
</svg>
