<svg width="111" height="111" viewBox="0 0 111 111" fill="none" xmlns="http://www.w3.org/2000/svg">
<rect x="24.5001" y="14.0714" width="63.4286" height="82.2857" fill="#0053B4" stroke="black" stroke-width="2.14286"/>
<path d="M23 30.2143C23 30.2143 28.7429 53.0571 29.4286 61.2857C30.1143 69.5143 30.5714 82.8571 30.7143 88.5H82.3571V21.6429H30.7143L23 30.2143Z" fill="#0053B4"/>
<path d="M23 30.2143C23 30.2143 28.7429 53.0571 29.4286 61.2857C30.1143 69.5143 30.5714 82.8571 30.7143 88.5H82.3571M23 30.2143H73.1429M23 30.2143L30.7143 21.6429H82.3571M82.3571 88.5C82.3571 84 82.3571 68.3571 81.9286 61.2857C81.2 49.2638 75.7857 35.5714 73.1429 30.2143M82.3571 88.5V21.6429M73.1429 30.2143L82.3571 21.6429" stroke="#070810" stroke-width="2.14286" stroke-linecap="round"/>
<path fill-rule="evenodd" clip-rule="evenodd" d="M54.4286 79.8571C56.8744 79.8571 58.8571 77.8744 58.8571 75.4286C58.8571 72.9827 56.8744 71 54.4286 71C51.9827 71 50 72.9827 50 75.4286C50 77.8744 51.9827 79.8571 54.4286 79.8571ZM54.4286 81.8571C57.979 81.8571 60.8571 78.979 60.8571 75.4286C60.8571 71.8782 57.979 69 54.4286 69C50.8782 69 48 71.8782 48 75.4286C48 78.979 50.8782 81.8571 54.4286 81.8571Z" fill="white"/>
<path d="M52 36H49.5L51.5 48.5H53.5L52 36Z" fill="white"/>
</svg>
