<svg width="111" height="111" viewBox="0 0 111 111" fill="none" xmlns="http://www.w3.org/2000/svg">
<rect x="24.5001" y="14.0714" width="63.4286" height="82.2857" fill="#F91503" stroke="black" stroke-width="2.14286"/>
<path d="M23 79.9283C23 79.9283 28.7429 57.0854 29.4286 48.8569C30.1143 40.6283 30.5714 27.2854 30.7143 21.6426H82.3571V88.4997H30.7143L23 79.9283Z" fill="#F91503"/>
<path d="M23 79.9283C23 79.9283 28.7429 57.0854 29.4286 48.8569C30.1143 40.6283 30.5714 27.2854 30.7143 21.6426H82.3571M23 79.9283H73.1429M23 79.9283L30.7143 88.4997H82.3571M82.3571 21.6426C82.3571 26.1426 82.3571 41.7854 81.9286 48.8569C81.2 60.8788 75.7857 74.5711 73.1429 79.9283M82.3571 21.6426V88.4997M73.1429 79.9283L82.3571 88.4997" stroke="#070810" stroke-width="2.14286" stroke-linecap="round"/>
<path d="M55.5 29H53.2143L51.5 44H54.3571L55.5 29Z" fill="white"/>
<path fill-rule="evenodd" clip-rule="evenodd" d="M49.9999 71.7146C52.4457 71.7146 54.4284 69.7318 54.4284 67.286C54.4284 64.8402 52.4457 62.8574 49.9999 62.8574C47.554 62.8574 45.5713 64.8402 45.5713 67.286C45.5713 69.7318 47.554 71.7146 49.9999 71.7146ZM49.9999 73.7146C53.5503 73.7146 56.4284 70.8364 56.4284 67.286C56.4284 63.7356 53.5503 60.8574 49.9999 60.8574C46.4495 60.8574 43.5713 63.7356 43.5713 67.286C43.5713 70.8364 46.4495 73.7146 49.9999 73.7146Z" fill="white"/>
</svg>
