<svg width="34" height="34" viewBox="0 0 34 34" fill="none" xmlns="http://www.w3.org/2000/svg">
<path d="M21.7045 4V9.10473L18.1948 13.7267V8.62195L21.7045 4Z" fill="#A4CEFF" stroke="black" stroke-width="1.5" stroke-linejoin="round"/>
<path d="M32.9 9.10352L29.3903 13.7255H18.1948L21.7045 9.10352H32.9Z" fill="#003B81" stroke="black" stroke-width="1.5" stroke-linejoin="round"/>
<path d="M26.4249 9.14062V25.1446L22.9151 29.7321V13.797L26.4249 9.14062Z" fill="#A4CEFF" stroke="black" stroke-width="1.5" stroke-linejoin="round"/>
<path d="M32.9 25.1777L29.3903 29.7997H18.1948L21.7045 25.1777H32.9Z" fill="#003B81" stroke="black" stroke-width="1.5" stroke-linejoin="round"/>
<path d="M21.7045 20.002V25.1761L18.1948 29.798V24.6239L21.7045 20.002Z" fill="#A4CEFF" stroke="black" stroke-width="1.5" stroke-linejoin="round"/>
<path d="M26.4859 20.0039V9.10473H21.7047V4H32.9207V25.169H21.7047V20.0039H26.4859Z" fill="#3276FE" stroke="black" stroke-width="1.5" stroke-linejoin="round"/>
<path d="M16.3921 9.13477L12.9101 13.7265L1.15454 13.7652L5.21708 9.13477H16.3921Z" fill="#003B81" stroke="black" stroke-width="1.5" stroke-linejoin="round"/>
<path d="M5.21702 4V25.169L1.15448 29.8V8.6304L5.21702 4Z" fill="#A4CEFF" stroke="black" stroke-width="1.5" stroke-linejoin="round"/>
<path d="M11.6115 9.1349V20.0347H16.3922V25.169H5.21655V4H16.3922V9.1349H11.6115Z" fill="#3276FE" stroke="black" stroke-width="1.5" stroke-linejoin="round"/>
<path d="M16.3921 25.168L12.9101 29.799H1.15454L5.21708 25.168H16.3921Z" fill="#003B81" stroke="black" stroke-width="1.5" stroke-linejoin="round"/>
</svg>
