<svg width="72" height="72" viewBox="0 0 72 72" fill="none" xmlns="http://www.w3.org/2000/svg">
<path d="M12.7499 3.62665e-05H59.2499C62.6318 0.0104533 71.9999 0 71.9999 0C71.9999 0 71.9987 9.61561 71.9999 13.0817V58.9183C72.0041 62.3815 71.9999 72 71.9999 72C71.9999 72 62.6518 71.9896 59.2699 72H12.7499C9.36802 71.9896 -7.7259e-05 72 -7.7259e-05 72C-7.7259e-05 72 0.00106412 62.3844 -9.63325e-05 58.9183V13.0817C-0.00426666 9.61849 -0.000109088 3.62665e-05 -0.000109088 3.62665e-05C-0.000109088 3.62665e-05 9.36108 0.00505922 12.7499 3.62665e-05Z" fill="#470137" style="fill:#470137;fill:color(display-p3 0.2784 0.0039 0.2157);fill-opacity:1;"/>
<path fill-rule="evenodd" clip-rule="evenodd" d="M51.7199 53.7125C49.4958 53.7529 47.2912 53.2915 45.2699 52.3625C43.3883 51.4824 41.8113 50.0621 40.7399 48.2825C39.5716 46.1975 39.0007 43.8308 39.0899 41.4425C39.0595 39.2223 39.6296 37.0352 40.7399 35.1125C41.8812 33.1605 43.5295 31.5537 45.5099 30.4625C47.8491 29.2418 50.4627 28.6427 53.0999 28.7225H53.7299C54.0411 28.7153 54.3523 28.7353 54.6599 28.7825V19.3325C54.6599 19.1225 54.7499 19.0025 54.9599 19.0025H61.0499C61.1894 18.9836 61.3199 19.075 61.3499 19.2125V47.8325C61.3499 48.3725 61.3499 48.9725 61.4099 49.6325C61.4626 50.2112 61.4921 50.7208 61.5188 51.1814L61.5299 51.3725C61.5418 51.5799 61.4216 51.7722 61.2299 51.8525C59.6581 52.5116 58.0181 52.9945 56.3399 53.2925C54.8152 53.5675 53.2693 53.708 51.7199 53.7125ZM37.8599 22.0625L28.8599 36.9125L38.4599 52.6625C38.5189 52.7726 38.5399 52.8991 38.5199 53.0225C38.5199 53.0878 38.4754 53.082 38.4058 53.0728C38.3476 53.0651 38.2719 53.0552 38.1899 53.0825H31.3199C30.8399 53.0825 30.5099 53.0825 30.3199 52.7525C30.0049 52.1225 29.6824 51.5 29.36 50.8775C29.0374 50.255 28.7149 49.6325 28.3999 49.0025C27.995 48.1926 27.5653 47.3951 27.1293 46.5861C26.887 46.1365 26.6429 45.6833 26.3999 45.2225C25.9936 44.4516 25.5372 43.67 25.0821 42.8905L25.0821 42.8905C24.7756 42.3656 24.4697 41.8416 24.1799 41.3225H24.1199C23.58 42.4282 22.9959 43.5339 22.4118 44.6396C22.3145 44.8239 22.2171 45.0082 22.1199 45.1925C21.9582 45.4993 21.7953 45.8062 21.6326 46.1127L21.6326 46.1128C21.1114 47.0946 20.5924 48.0722 20.1199 49.0325C19.6508 49.986 19.0727 50.9739 18.5203 51.9181C18.3427 52.2216 18.1678 52.5206 17.9999 52.8125C17.8799 53.1125 17.6399 53.1425 17.3099 53.1425H10.7099C10.6807 53.1425 10.6532 53.146 10.6284 53.1492C10.5514 53.1592 10.4999 53.1659 10.4999 53.0525C10.4744 52.9389 10.4961 52.8198 10.5599 52.7225L19.8899 37.4225L10.7999 22.0325C10.7099 21.9125 10.6799 21.7925 10.7399 21.7325C10.8047 21.6561 10.8998 21.6122 10.9999 21.6125H17.8099C17.9521 21.6127 18.0934 21.6329 18.2299 21.6725C18.3499 21.7374 18.4528 21.8299 18.5299 21.9425C19.0999 23.2325 19.7599 24.5225 20.4499 25.8125C21.11 27.0464 21.834 28.2529 22.5521 29.4494L22.6499 29.6125C23.3999 30.8625 24.0299 32.1325 24.6499 33.4225H24.7099C25.3399 32.1025 25.9999 30.8125 26.7099 29.5525C27.3312 28.4499 27.8989 27.3474 28.4665 26.2449L28.7099 25.7725C29.135 24.9485 29.5814 24.1117 30.0213 23.2873L30.0216 23.2866C30.2543 22.8506 30.4851 22.4179 30.7099 21.9925C30.7335 21.8747 30.7971 21.7687 30.8899 21.6925C31.0077 21.624 31.147 21.6026 31.2799 21.6325H37.6099C37.7587 21.6013 37.9052 21.6945 37.9399 21.8425C37.9412 21.9221 37.9084 21.9984 37.8499 22.0525L37.8599 22.0625ZM54.6599 34.5125V47.7125H54.5999C54.2554 47.8416 53.8866 47.8929 53.5199 47.8625C53.102 47.9138 52.6809 47.9339 52.2599 47.9225C51.4146 47.924 50.5743 47.7924 49.7699 47.5325C49.02 47.2913 48.3356 46.8807 47.7699 46.3325C47.1697 45.7297 46.7089 45.0026 46.4199 44.2025C46.0568 43.2138 45.8838 42.1654 45.9099 41.1125C45.8509 39.7706 46.1995 38.4423 46.9099 37.3025C47.5578 36.3581 48.4354 35.5942 49.4599 35.0825C50.5115 34.5557 51.6739 34.2882 52.8499 34.3025C53.0212 34.3025 53.1899 34.3177 53.3574 34.3328C53.5224 34.3477 53.6862 34.3625 53.8499 34.3625L54.6599 34.5125Z" fill="#FF61F6" style="fill:#FF61F6;fill:color(display-p3 1.0000 0.3804 0.9647);fill-opacity:1;"/>
</svg>
